<svg width="48" height="37" viewBox="0 0 48 37" fill="none" xmlns="http://www.w3.org/2000/svg">
<path fill-rule="evenodd" clip-rule="evenodd" d="M18.9688 24.9139H1.94201C1.40474 24.9139 0.920187 24.6989 0.568527 24.3453C0.214902 23.9917 0 23.5091 0 22.9718V3.36625C0 2.82898 0.214912 2.34443 0.568527 1.99277C0.922153 1.63915 1.40474 1.42424 1.94201 1.42424H21.5436C22.0809 1.42424 22.5654 1.63916 22.9171 1.99277C23.2707 2.3464 23.4856 2.82898 23.4856 3.36625V19.3342H40.7645C41.3018 19.3342 41.7863 19.5491 42.138 19.9027C42.4916 20.2564 42.7065 20.739 42.7065 21.2762V34.5814C42.7065 35.1186 42.4916 35.6032 42.138 35.9548C41.7844 36.3085 41.3018 36.5234 40.7645 36.5234H20.9048C20.3675 36.5234 19.883 36.3085 19.5313 35.9548C19.1777 35.6012 18.9628 35.1186 18.9628 34.5814V24.9104L18.9688 24.9139ZM25.1502 32.5527V33.1213H23.4661C23.1613 33.1213 22.9132 33.3694 22.9132 33.6742C22.9132 33.979 23.1613 34.2271 23.4661 34.2271H25.1502V34.7956C25.1502 35.1004 25.3984 35.3485 25.7032 35.3485C26.0079 35.3485 26.2561 35.1004 26.2561 34.7956V34.2271H38.2168C38.5216 34.2271 38.7697 33.979 38.7697 33.6742C38.7697 33.3694 38.5216 33.1213 38.2168 33.1213H26.2561V32.5527C26.2561 32.2479 26.008 31.9998 25.7032 31.9998C25.3984 31.9998 25.1502 32.2479 25.1502 32.5527ZM34.8683 27.6821C35.0148 27.5981 35.1359 27.4828 35.2219 27.346C35.2317 27.3304 35.2434 27.3206 35.2473 27.303C35.3372 27.1448 35.3899 26.967 35.3899 26.7814C35.3899 26.5977 35.343 26.418 35.2473 26.2597C35.1633 26.1171 35.0519 25.996 34.9113 25.9061C34.8956 25.8963 34.8859 25.8905 34.8683 25.8807L27.8561 21.8325C27.692 21.7368 27.5142 21.6899 27.3344 21.6899C27.1547 21.6899 26.9808 21.7368 26.8128 21.8325C26.6662 21.9165 26.5451 22.0318 26.4552 22.1686C26.4455 22.1842 26.4337 22.194 26.4298 22.2116C26.34 22.3698 26.2931 22.5476 26.2931 22.7332V30.8312C26.2931 31.0149 26.34 31.1946 26.4298 31.3529C26.5197 31.5053 26.6506 31.6381 26.8147 31.7319C26.9788 31.8277 27.1566 31.8745 27.3364 31.8745C27.5161 31.8745 27.6939 31.8277 27.858 31.7319L34.8702 27.6838L34.8683 27.6821ZM27.4029 30.7143L34.2096 26.7814L27.4029 22.8485V30.7143ZM22.3799 19.3317V18.2318L15.0046 10.8565L7.09761 18.7634C6.8827 18.9784 6.52909 18.9784 6.31222 18.7634C6.09731 18.5485 6.09731 18.1949 6.31222 17.978L8.39687 15.8934L6.61116 14.1077L1.10344 19.6154V22.9699C1.10344 23.1966 1.19918 23.4076 1.34571 23.56C1.49224 23.7124 1.70324 23.8022 1.93574 23.8022H18.9626V21.2761C18.9626 20.7388 19.1775 20.2542 19.5311 19.9026C19.8847 19.549 20.3673 19.3341 20.9046 19.3341H22.3738L22.3799 19.3317ZM40.7706 20.4434H20.9109C20.6784 20.4434 20.4733 20.5391 20.3209 20.6857C20.1685 20.8381 20.0786 21.0432 20.0786 21.2757V34.5809C20.0786 34.8075 20.1744 35.0185 20.3209 35.1709C20.4733 35.3233 20.6784 35.4132 20.9109 35.4132H40.7706C40.9972 35.4132 41.2082 35.3174 41.3606 35.1709C41.513 35.0244 41.6029 34.8134 41.6029 34.5809V21.2757C41.6029 21.0491 41.5072 20.8381 41.3606 20.6857C41.2083 20.5333 41.0031 20.4434 40.7706 20.4434ZM40.9601 10.1982C40.5225 9.97159 40.0379 9.94619 39.6062 10.0869C39.1842 10.2236 38.8169 10.5089 38.5903 10.9231C38.5747 10.9485 38.559 10.9817 38.5473 11.0071C38.3422 11.433 38.3207 11.896 38.4574 12.318C38.5942 12.74 38.8794 13.1073 39.2936 13.334C39.319 13.3496 39.3523 13.3652 39.3777 13.3769C39.8036 13.5821 40.2666 13.6036 40.6886 13.4668C41.1263 13.33 41.5053 13.0253 41.7319 12.5876C41.9585 12.15 41.9839 11.6655 41.8433 11.2337C41.7065 10.7961 41.4017 10.4171 40.9641 10.1904L40.9601 10.1982ZM40.7862 11.5717C40.7335 11.4076 40.6182 11.2669 40.4541 11.1829C40.29 11.0989 40.1063 11.0872 39.9384 11.1399C39.7742 11.1927 39.6336 11.308 39.5496 11.4721C39.4655 11.6401 39.4538 11.8257 39.5066 11.9878C39.5593 12.1519 39.6746 12.2926 39.8387 12.3766C40.0028 12.4606 40.1865 12.4723 40.3486 12.4196C40.5127 12.3668 40.6534 12.2516 40.7374 12.0875C40.8214 11.9233 40.8331 11.7397 40.7804 11.5776L40.7862 11.5717ZM36.5584 7.92407C36.1207 7.69744 35.6362 7.67203 35.2045 7.8088C34.7727 7.94556 34.3878 8.25034 34.167 8.68212C33.9404 9.11975 33.915 9.6082 34.0557 10.0399C34.1924 10.4776 34.4972 10.8566 34.9348 11.0832C35.3725 11.3098 35.857 11.3352 36.2888 11.1985C36.7264 11.0617 37.1054 10.7569 37.332 10.3193C37.5587 9.88168 37.5841 9.39713 37.4434 8.96539C37.3066 8.52775 37.0019 8.14874 36.5642 7.92212L36.5584 7.92407ZM36.3786 9.29754C36.3317 9.14515 36.2262 9.0084 36.0738 8.91852C36.0582 8.91266 36.0367 8.90289 36.0211 8.89312C35.8628 8.81888 35.689 8.81497 35.5307 8.86186C35.3783 8.90875 35.2416 9.01426 35.1517 9.16665C35.1458 9.18228 35.1361 9.20377 35.1263 9.2194C35.052 9.37765 35.0481 9.55153 35.095 9.70393C35.1419 9.85632 35.2474 9.99308 35.3998 10.0829C35.4154 10.0888 35.4369 10.0986 35.4526 10.1083C35.6108 10.1826 35.7847 10.1865 35.943 10.1396C36.1071 10.0869 36.2477 9.97159 36.3317 9.80747C36.4158 9.64336 36.4275 9.45971 36.3747 9.29757L36.3786 9.29754ZM32.1937 5.67532C32.1683 5.65969 32.1351 5.64406 32.1097 5.63234C31.6838 5.42719 31.2208 5.4057 30.7988 5.54246C30.3767 5.67923 30.0095 5.96447 29.7828 6.37867C29.7672 6.40407 29.7516 6.43729 29.7399 6.46268C29.5347 6.8886 29.5132 7.35161 29.65 7.77364C29.7867 8.21128 30.0915 8.5903 30.5292 8.81692C30.9668 9.04354 31.4513 9.06895 31.8831 8.92828C32.3207 8.79152 32.6997 8.48674 32.9264 8.04911C33.153 7.61148 33.1784 7.12692 33.0377 6.69519C32.901 6.27318 32.6157 5.90589 32.2015 5.67927L32.1937 5.67532ZM31.9788 7.02924C31.9261 6.86513 31.8108 6.72445 31.6467 6.64045C31.4826 6.55644 31.2989 6.54471 31.1368 6.59747C30.9727 6.65022 30.832 6.76549 30.748 6.9296C30.664 7.09762 30.6523 7.28322 30.705 7.44536C30.7578 7.60947 30.873 7.75014 31.0371 7.83415C31.2012 7.91816 31.3849 7.92989 31.547 7.87713C31.7112 7.82438 31.8518 7.70911 31.9358 7.545C32.0198 7.38089 32.0316 7.19724 31.9788 7.03509V7.02924ZM26.6762 12.3784L24.0484 15.9537C23.9644 16.0651 23.9175 16.2057 23.9331 16.3542C23.9644 16.659 24.2379 16.8759 24.5447 16.8446L31.0367 16.1237C31.1793 16.2077 31.3161 16.2878 31.447 16.3601C31.6306 16.4656 31.826 16.5711 32.037 16.6766C35.0008 18.2083 38.1129 18.7925 40.7352 18.5033C43.4412 18.2024 45.6528 16.9774 46.7216 14.8967C47.7961 12.818 47.5109 10.3055 46.1902 7.92558C44.9046 5.62016 42.6266 3.42418 39.6626 1.8982C36.6988 0.366476 33.5867 -0.217706 30.9644 0.0714841C28.2585 0.372358 26.0469 1.59346 24.9781 3.67806C24.2884 5.02027 24.1575 6.53635 24.5092 8.08958C24.8354 9.53143 25.5837 11.0065 26.6778 12.3761L26.6762 12.3784ZM25.586 7.85159C25.9025 9.23678 26.6605 10.663 27.7859 11.9896C27.9597 12.1791 27.9812 12.4741 27.823 12.689L25.6797 15.6059L31.1034 15.0061C31.2187 14.9964 31.3457 15.0159 31.4512 15.0843C31.6192 15.1898 31.7989 15.2953 31.9943 15.4008C32.1838 15.5063 32.3675 15.6059 32.5472 15.7016C35.3157 17.1279 38.1955 17.6769 40.6182 17.4131C42.9549 17.1552 44.8519 16.1276 45.7408 14.4024C46.6298 12.6754 46.368 10.5379 45.2251 8.4786C44.0411 6.35099 41.9232 4.32496 39.1547 2.89286C36.3862 1.46662 33.5064 0.917647 31.0837 1.18138C28.7411 1.43927 26.8499 2.46693 25.9611 4.19207C25.3925 5.29201 25.2929 6.5502 25.5879 7.8514L25.586 7.85159ZM8.88527 6.50353C8.17995 6.50353 7.54305 6.78877 7.08 7.25181C6.61697 7.71484 6.33172 8.35175 6.33172 9.05707C6.33172 9.76239 6.61696 10.3993 7.08 10.8623C7.54304 11.3254 8.17995 11.6106 8.88527 11.6106C9.59059 11.6106 10.2275 11.3254 10.6905 10.8623C11.1536 10.3993 11.4388 9.76239 11.4388 9.05707C11.4388 8.35175 11.1536 7.71485 10.6905 7.25181C10.2275 6.78877 9.59059 6.50353 8.88527 6.50353ZM9.90709 8.03525C9.64333 7.7715 9.28579 7.61325 8.88527 7.61325C8.48475 7.61325 8.12723 7.77736 7.86345 8.03525C7.5997 8.299 7.44144 8.65655 7.44144 9.05707C7.44144 9.45758 7.60555 9.81511 7.86345 10.0789C8.12134 10.3426 8.48474 10.5009 8.88527 10.5009C9.28578 10.5009 9.6433 10.3368 9.90709 10.0789C10.1708 9.81514 10.3291 9.45759 10.3291 9.05707C10.3291 8.65656 10.165 8.29903 9.90709 8.03525ZM9.18616 15.1115L14.6139 9.68377C14.8288 9.46885 15.1824 9.46885 15.3992 9.68377L22.3799 16.6644V3.3653C22.3799 3.13866 22.2842 2.92766 22.1377 2.77527C21.9853 2.62287 21.7801 2.533 21.5476 2.533H1.94201C1.70952 2.533 1.50437 2.62873 1.35198 2.77527C1.19958 2.92766 1.10971 3.1328 1.10971 3.3653V18.0439L6.22281 12.9308C6.43772 12.7159 6.79133 12.7159 7.0082 12.9308L9.18858 15.1112L9.18616 15.1115Z" fill="white"/>
</svg>
