<svg width="45" height="39" viewBox="0 0 45 39" fill="none" xmlns="http://www.w3.org/2000/svg">
<path d="M31.8199 9.19315H39.4301L35.5467 21.8527H28.3742C27.6964 21.8527 27.147 22.4021 27.147 23.0799C27.147 23.7578 27.6964 24.3072 28.3742 24.3072H36.4487C36.4504 24.3072 36.4524 24.3076 36.454 24.3076C36.5305 24.3076 36.6054 24.2982 36.6794 24.2843C36.7024 24.2802 36.7244 24.2732 36.7469 24.2679C36.796 24.2556 36.8443 24.2413 36.8914 24.2229C36.9167 24.2131 36.9413 24.2033 36.9654 24.1918C37.0104 24.1709 37.0534 24.1472 37.0959 24.121C37.1155 24.1088 37.136 24.0981 37.1548 24.0846C37.273 24.002 37.3773 23.8989 37.4612 23.7778C37.4735 23.7598 37.4833 23.7406 37.4948 23.7222C37.5213 23.6792 37.5459 23.635 37.5676 23.5884C37.5798 23.5618 37.5897 23.5348 37.5999 23.507C37.6085 23.4841 37.6195 23.4632 37.6269 23.4395L42.2634 8.32589C42.3776 7.95363 42.3084 7.54945 42.0769 7.2365C41.8454 6.92355 41.4792 6.73865 41.0898 6.73865H31.8199C31.1421 6.73865 30.5927 7.28805 30.5927 7.9659C30.5927 8.64375 31.1421 9.19315 31.8199 9.19315Z" fill="white"/>
<path d="M43.7726 26.8142H12.7734C12.0681 26.8142 11.495 26.2517 11.495 25.5612C11.495 24.8703 12.0685 24.3078 12.7734 24.3078H19.3069C19.9847 24.3078 20.5341 23.7584 20.5341 23.0805C20.5341 22.4027 19.9847 21.8533 19.3069 21.8533H12.7734C10.7149 21.8533 9.0405 23.5166 9.0405 25.5612C9.0405 27.6058 10.7153 29.2687 12.7734 29.2687H43.7726C44.4504 29.2687 44.9998 28.7193 44.9998 28.0415C44.9998 27.3636 44.4504 26.8142 43.7726 26.8142Z" fill="white"/>
<path d="M9.93747 20.4391C10.5916 20.2619 10.9786 19.5882 10.8019 18.934L8.16818 9.19335H17.0564C17.7342 9.19335 18.2836 8.64395 18.2836 7.9661C18.2836 7.28824 17.7342 6.73884 17.0564 6.73884H7.50424L5.92763 0.90694C5.78281 0.371858 5.29723 0 4.74292 0H1.22725C0.5494 0 0 0.5494 0 1.22725C0 1.9051 0.5494 2.4545 1.22725 2.4545H3.80367L8.43204 19.5747C8.57972 20.1216 9.07512 20.482 9.61593 20.482C9.7223 20.482 9.82988 20.4681 9.93747 20.4391Z" fill="white"/>
<path d="M23.1078 18.1552L23.1074 18.1547L22.0981 17.1492C21.6183 16.671 20.8414 16.6722 20.3624 17.1525C19.8842 17.6328 19.8854 18.4096 20.3657 18.8882L21.3749 19.8938C21.3757 19.8946 21.3769 19.8954 21.3769 19.8954C21.7439 20.2607 22.1652 20.5377 22.614 20.734V23.0809C22.614 23.7588 23.1634 24.3082 23.8413 24.3082C24.5191 24.3082 25.0685 23.7588 25.0685 23.0809V21.0003C25.8294 20.8482 26.5551 20.48 27.1438 19.8938C27.9157 19.1247 28.3412 18.102 28.3412 17.0138C28.3412 15.9256 27.9157 14.9029 27.1438 14.1339L25.1254 12.1232L23.107 10.1126C22.8005 9.80739 22.632 9.40239 22.632 8.97163C22.632 8.54086 22.8005 8.13587 23.1065 7.83069C23.7418 7.19825 24.7752 7.19784 25.4109 7.83028L25.4113 7.83069L26.4205 8.83622C26.6598 9.07472 26.9732 9.19417 27.2866 9.19417C27.6016 9.19417 27.9161 9.0739 28.1559 8.83295C28.6341 8.35268 28.6329 7.57583 28.1526 7.0972L27.1434 6.09167C27.1426 6.09086 27.1422 6.09045 27.1413 6.09004C26.5531 5.50464 25.8282 5.13728 25.0681 4.9851V2.9045C25.0681 2.22665 24.5187 1.67725 23.8408 1.67725C23.163 1.67725 22.6136 2.22665 22.6136 2.9045V5.25141C22.164 5.44818 21.7418 5.72595 21.3745 6.09167C20.6025 6.86075 20.1775 7.88346 20.1775 8.97163C20.1775 10.0598 20.6025 11.0825 21.3745 11.8516L23.3929 13.8622L25.4113 15.8729C25.7177 16.1781 25.8863 16.583 25.8863 17.0138C25.8863 17.4446 25.7173 17.8496 25.4113 18.1547C24.7768 18.7872 23.7435 18.7872 23.1078 18.1552Z" fill="white"/>
<path d="M18.0738 31.0441C16.0902 31.0441 14.4767 32.646 14.4767 34.615C14.4767 36.5839 16.0906 38.1859 18.0738 38.1859C20.0571 38.1859 21.6709 36.5839 21.6709 34.615C21.6713 32.646 20.0575 31.0441 18.0738 31.0441ZM18.0738 35.7318C17.4434 35.7318 16.9312 35.2306 16.9312 34.6154C16.9312 34.0001 17.4438 33.499 18.0738 33.499C18.7038 33.499 19.2164 33.9997 19.2164 34.6154C19.2164 35.231 18.7042 35.7318 18.0738 35.7318Z" fill="white"/>
<path d="M35.9675 31.0441C33.9838 31.0441 32.37 32.646 32.37 34.615C32.37 36.5839 33.9838 38.1859 35.9675 38.1859C37.9511 38.1859 39.5645 36.5839 39.5645 34.615C39.5645 32.646 37.9507 31.0441 35.9675 31.0441ZM35.9675 35.7318C35.3371 35.7318 34.8245 35.2306 34.8245 34.6154C34.8245 34.0001 35.3371 33.499 35.9675 33.499C36.5979 33.499 37.11 33.9997 37.11 34.6154C37.11 35.231 36.5974 35.7318 35.9675 35.7318Z" fill="white"/>
</svg>
