<svg width="45" height="45" viewBox="0 0 45 45" fill="none" xmlns="http://www.w3.org/2000/svg">
<path d="M41.5135 35.8113C40.3216 35.8113 39.3261 36.6526 39.083 37.7743H27.5058V31.988H29.6043C30.9177 31.988 31.9834 30.9224 31.9834 29.609V27.5104H35.1476V29.8661C34.0259 30.1091 33.1846 31.1047 33.1846 32.2965C33.1846 33.666 34.3016 34.783 35.6711 34.783C37.0405 34.783 38.1576 33.666 38.1576 32.2965C38.1576 31.1047 37.3163 30.1091 36.1946 29.8661V26.987C36.1946 26.6972 35.9609 26.4635 35.6711 26.4635H31.988V23.0328H39.083C39.3261 24.1546 40.3216 24.9959 41.5135 24.9959C42.8829 24.9959 44 23.8788 44 22.5093C44 21.1399 42.8829 20.0228 41.5135 20.0228C40.3216 20.0228 39.3261 20.8641 39.083 21.9859H31.988V18.5552H38.2978C38.5876 18.5552 38.8213 18.3215 38.8213 18.0317V5.91696C39.943 5.67391 40.7844 4.67837 40.7844 3.48652C40.7844 2.11707 39.6673 1 38.2978 1C36.9284 1 35.8113 2.11707 35.8113 3.48652C35.8113 4.67837 36.6526 5.67391 37.7743 5.91696V17.4942H31.988V15.3957C31.988 14.0823 30.9177 13.0166 29.609 13.0166H27.5104V9.85239H29.8661C30.1091 10.9741 31.1047 11.8154 32.2965 11.8154C33.666 11.8154 34.783 10.6984 34.783 9.32891C34.783 7.95946 33.666 6.84239 32.2965 6.84239C31.1047 6.84239 30.1091 7.6837 29.8661 8.80544H26.987C26.6972 8.80544 26.4635 9.03913 26.4635 9.32891V13.0166H23.0328V5.91696C24.1546 5.67391 24.9959 4.67837 24.9959 3.48652C24.9865 2.11707 23.8695 1 22.5 1C21.1305 1 20.0135 2.11707 20.0135 3.48652C20.0135 4.67837 20.8548 5.67391 21.9765 5.91696V13.012H18.5459V6.70217C18.5459 6.41239 18.3122 6.1787 18.0224 6.1787H5.91696C5.67391 5.05696 4.67837 4.21565 3.48652 4.21565C2.11707 4.21565 1 5.33272 1 6.70217C1 8.07163 2.11707 9.1887 3.48652 9.1887C4.67837 9.1887 5.67391 8.34739 5.91696 7.22565H17.4942V13.012H15.3957C14.0823 13.012 13.0166 14.0776 13.0166 15.391V17.4896H9.85239V15.1339C10.9741 14.8909 11.8154 13.8953 11.8154 12.7035C11.8154 11.334 10.6984 10.217 9.32891 10.217C7.95946 10.217 6.84239 11.334 6.84239 12.7035C6.84239 13.8953 7.6837 14.8909 8.80544 15.1339V18.013C8.80544 18.3028 9.03913 18.5365 9.32891 18.5365H13.0166V21.9672H5.91696C5.67391 20.8454 4.67837 20.0041 3.48652 20.0041C2.11707 20.0135 1 21.1305 1 22.5C1 23.8695 2.11707 24.9865 3.48652 24.9865C4.67837 24.9865 5.67391 24.1452 5.91696 23.0235H13.012V26.4541H6.70217C6.41239 26.4541 6.1787 26.6878 6.1787 26.9776V39.0784C5.05696 39.3214 4.21565 40.317 4.21565 41.5088C4.21565 42.8783 5.33272 43.9953 6.70217 43.9953C8.07163 43.9953 9.1887 42.8783 9.1887 41.5088C9.1887 40.317 8.34739 39.3214 7.22565 39.0784V27.5058H13.012V29.6043C13.012 30.9177 14.0823 31.9834 15.391 31.9834H17.4896V35.1476H15.1339C14.8909 34.0259 13.8953 33.1846 12.7035 33.1846C11.334 33.1846 10.217 34.3016 10.217 35.6711C10.217 37.0405 11.334 38.1576 12.7035 38.1576C13.8953 38.1576 14.8909 37.3163 15.1339 36.1946H18.013C18.3028 36.1946 18.5365 35.9609 18.5365 35.6711V31.988H21.9672V39.083C20.8454 39.3261 20.0041 40.3216 20.0041 41.5135C20.0041 42.8829 21.1212 44 22.4907 44C23.8601 44 24.9772 42.8829 24.9772 41.5135C24.9772 40.3216 24.1359 39.3261 23.0141 39.083V31.988H26.4448V38.2978C26.4448 38.5876 26.6785 38.8213 26.9683 38.8213H39.069C39.3121 39.943 40.3076 40.7844 41.4995 40.7844C42.8689 40.7844 43.986 39.6673 43.986 38.2978C43.986 36.9284 42.8829 35.8113 41.5135 35.8113ZM37.1153 32.2918C37.1153 33.0864 36.4703 33.7314 35.6758 33.7314C34.8812 33.7314 34.2362 33.0864 34.2362 32.2918C34.2362 31.4973 34.8812 30.8523 35.6758 30.8523C36.4703 30.8523 37.1153 31.4973 37.1153 32.2918ZM41.5135 21.0604C42.308 21.0604 42.953 21.7054 42.953 22.5C42.953 23.2946 42.308 23.9396 41.5135 23.9396C40.7189 23.9396 40.0739 23.2946 40.0739 22.5C40.0739 21.7054 40.7189 21.0604 41.5135 21.0604ZM36.8583 3.48652C36.8583 2.69196 37.5033 2.04696 38.2978 2.04696C39.0924 2.04696 39.7374 2.69196 39.7374 3.48652C39.7374 4.28109 39.0924 4.92609 38.2978 4.92609C37.5033 4.92609 36.8583 4.28109 36.8583 3.48652ZM32.2918 7.88467C33.0864 7.88467 33.7314 8.52967 33.7314 9.32424C33.7314 10.1188 33.0864 10.7638 32.2918 10.7638C31.4973 10.7638 30.8523 10.1188 30.8523 9.32424C30.8523 8.52967 31.4973 7.88467 32.2918 7.88467ZM21.0604 3.48652C21.0604 2.69196 21.7054 2.04696 22.5 2.04696C23.2946 2.04696 23.9396 2.69196 23.9396 3.48652C23.9396 4.28109 23.2946 4.92609 22.5 4.92609C21.7054 4.92609 21.0604 4.28109 21.0604 3.48652ZM3.48652 8.14174C2.69196 8.14174 2.04696 7.49674 2.04696 6.70217C2.04696 5.90761 2.69196 5.26261 3.48652 5.26261C4.28109 5.26261 4.92609 5.90761 4.92609 6.70217C4.92609 7.49674 4.28109 8.14174 3.48652 8.14174ZM7.88467 12.7082C7.88467 11.9136 8.52967 11.2686 9.32424 11.2686C10.1188 11.2686 10.7638 11.9136 10.7638 12.7082C10.7638 13.5027 10.1188 14.1477 9.32424 14.1477C8.52967 14.1477 7.88467 13.5027 7.88467 12.7082ZM3.48652 23.9396C2.69196 23.9396 2.04696 23.2946 2.04696 22.5C2.04696 21.7054 2.69196 21.0604 3.48652 21.0604C4.28109 21.0604 4.92609 21.7054 4.92609 22.5C4.92609 23.2946 4.28109 23.9396 3.48652 23.9396ZM8.14174 41.5135C8.14174 42.308 7.49674 42.953 6.70217 42.953C5.90761 42.953 5.26261 42.308 5.26261 41.5135C5.26261 40.7189 5.90761 40.0739 6.70217 40.0739C7.49674 40.0739 8.14174 40.7189 8.14174 41.5135ZM12.7082 37.1153C11.9136 37.1153 11.2686 36.4703 11.2686 35.6758C11.2686 34.8812 11.9136 34.2362 12.7082 34.2362C13.5027 34.2362 14.1477 34.8812 14.1477 35.6758C14.1477 36.4703 13.5027 37.1153 12.7082 37.1153ZM23.9396 41.5135C23.9396 42.308 23.2946 42.953 22.5 42.953C21.7054 42.953 21.0604 42.308 21.0604 41.5135C21.0604 40.7189 21.7054 40.0739 22.5 40.0739C23.2946 40.0739 23.9396 40.7189 23.9396 41.5135ZM14.0636 29.6043V15.3957C14.0636 14.6618 14.6618 14.0636 15.3957 14.0636H29.6043C30.3382 14.0636 30.9364 14.6618 30.9364 15.3957V29.6043C30.9364 30.3382 30.3382 30.9364 29.6043 30.9364H15.3957C14.6572 30.9364 14.0636 30.3428 14.0636 29.6043ZM41.5135 39.7374C40.7189 39.7374 40.0739 39.0924 40.0739 38.2978C40.0739 37.5033 40.7189 36.8583 41.5135 36.8583C42.308 36.8583 42.953 37.5033 42.953 38.2978C42.9484 39.0924 42.3034 39.7374 41.5135 39.7374ZM28.8425 15.634H16.1575C15.8677 15.634 15.634 15.8677 15.634 16.1575V28.8378C15.634 29.1276 15.8677 29.3613 16.1575 29.3613H28.8378C29.1276 29.3613 29.3613 29.1276 29.3613 28.8378V16.1575C29.366 15.8677 29.1323 15.634 28.8425 15.634ZM28.3143 28.3143H16.6857V16.6857H28.319V28.3143H28.3143Z" fill="white" stroke="white" stroke-width="0.5"/>
</svg>
