<svg width="50" height="40" viewBox="0 0 50 40" fill="none" xmlns="http://www.w3.org/2000/svg">
<path fill-rule="evenodd" clip-rule="evenodd" d="M7.81146 32.7532H2.56816C1.95275 32.7532 0.839227 32.7532 0.428975 31.7276C0.253152 31.288 0.223844 30.7605 0.428975 30.2917C0.634106 29.8228 0.956456 29.4712 1.42532 29.266C1.80628 29.0902 2.68538 28.6799 2.97846 28.5334C3.03707 28.2404 3.09568 27.918 3.38871 27.4785L0.253187 24.929C-0.0105487 24.6653 -0.0984605 24.2257 0.135968 23.9326C2.77332 20.5334 6.96166 23.3172 8.339 24.2257C8.42691 24.255 8.51482 24.3136 8.54413 24.3722L13.6999 22.1451L6.66867 14.7038C6.46354 14.5279 6.43423 14.1763 6.55145 13.9126C6.66867 13.6195 6.9617 13.4437 7.25472 13.5023L12.6156 13.9419C12.7328 13.9419 12.85 13.9712 12.9379 14.0591L20.8479 19.0973L26.7948 16.5479C29.7546 15.2292 32.3607 15.9325 33.8261 16.9874C34.8224 17.7493 35.4085 18.775 35.2913 19.7127C35.2327 20.2109 34.9396 21.09 33.6795 21.6175L8.1027 32.6632C8.01478 32.7218 7.92687 32.7511 7.80965 32.7511L7.81146 32.7532ZM1.71794 24.3452L4.7656 26.8653C5.05864 27.0998 5.14655 27.5686 4.85351 27.891C4.41395 28.4478 4.35534 28.6529 4.35534 28.8287C4.23812 29.6199 3.82786 29.8251 1.9524 30.6456C1.80588 30.6749 1.77657 30.8214 1.71796 30.8507C1.68866 30.9679 1.68866 31.0558 1.71796 31.173C1.80588 31.3489 2.30406 31.3489 2.56778 31.3489H7.66454L33.0948 20.3616C33.4172 20.2444 33.8274 19.9514 33.8567 19.5998C33.886 19.1895 33.5637 18.6327 32.9483 18.1638C31.8347 17.314 29.7542 16.8452 27.3529 17.9001L21.0544 20.5668C20.8492 20.6547 20.6148 20.6547 20.4096 20.5375L12.2941 15.3817L8.95346 15.0886L15.4571 21.9438C15.6036 22.1197 15.6915 22.3541 15.6036 22.5886C15.545 22.8523 15.3985 22.9988 15.2226 23.116L8.77754 25.8999C8.39658 26.0464 8.10352 25.8999 7.51748 25.4897C5.55409 24.1124 3.3563 22.9695 1.71704 24.3468L1.71794 24.3452Z" fill="white"/>
<path fill-rule="evenodd" clip-rule="evenodd" d="M30.4025 39.23C23.4593 39.23 17.1592 35.6549 13.5563 29.6201C13.3512 29.2978 13.4684 28.8583 13.7907 28.6531C14.1131 28.448 14.5526 28.5652 14.7578 28.8875C18.0985 34.4534 23.9576 37.7942 30.4022 37.7942C40.3931 37.7942 48.5377 29.6787 48.5377 19.6298C48.5377 9.63878 40.3931 1.46526 30.4022 1.46526C22.2281 1.52387 15.0509 7.00163 12.8823 14.8551C12.7651 15.2067 12.4135 15.4412 12.0032 15.3239C11.6516 15.2067 11.3878 14.8551 11.505 14.4448C13.8201 5.97772 21.6425 0.0877686 30.4022 0.0877686C41.1844 0.0877686 49.9441 8.87694 49.9441 19.6881C49.9441 30.4408 41.1842 39.23 30.4025 39.23Z" fill="white"/>
<path fill-rule="evenodd" clip-rule="evenodd" d="M30.4011 39.2301C26.3865 39.2301 23.0183 33.9277 21.7875 25.7812C21.7582 25.371 21.9926 25.0486 22.4029 24.9607C22.8132 24.8728 23.1355 25.1659 23.2234 25.5761C24.2784 32.7539 27.2381 37.7941 30.4012 37.7941C34.5038 37.7941 37.9891 29.4736 37.9891 19.6297C37.9891 9.81473 34.5019 1.46516 30.4012 1.46516C26.3279 1.46516 22.8428 9.63919 22.7548 19.3076C22.7548 19.7178 22.4324 20.0109 22.0808 20.0109C21.6705 20.0109 21.3775 19.6885 21.3775 19.2783C21.4654 8.4671 25.4508 0 30.4598 0C35.4414 0.0879117 39.425 8.70115 39.425 19.6884C39.425 30.6461 35.4395 39.2301 30.4011 39.2301Z" fill="white"/>
<path fill-rule="evenodd" clip-rule="evenodd" d="M30.4001 28.3595C26.9422 28.3595 23.4864 27.9786 20.4386 27.1874C20.087 27.0994 19.8525 26.7185 19.9112 26.3375C19.9991 25.9859 20.4093 25.7221 20.7903 25.8101C23.6914 26.5426 27.0303 26.9529 30.4002 26.9529C40.2446 26.9529 48.5356 23.6123 48.5356 19.6286C48.5356 15.6432 40.2446 12.3338 30.4002 12.3338C23.8675 12.3338 17.772 13.799 14.4917 16.1727C14.1401 16.4364 13.7005 16.3485 13.4954 16.0262C13.2609 15.7038 13.3488 15.235 13.6712 15.0591C17.2463 12.4804 23.4861 10.9272 30.4583 10.9272C41.4161 10.9272 50.0002 14.7661 50.0002 19.6874C49.9416 24.5519 41.3868 28.3595 30.4001 28.3595Z" fill="white"/>
</svg>
