<svg width="40" height="43" viewBox="0 0 40 43" fill="none" xmlns="http://www.w3.org/2000/svg">
<path d="M39.8511 11.3343L35.3036 0.53462C35.167 0.210155 34.8509 0 34.5026 0H5.47995C5.13082 0 4.81564 0.210155 4.67894 0.53462L0.0696538 11.482C0.0687831 11.4838 0.0687824 11.4864 0.0679118 11.4873C0.0261199 11.5884 0 11.7493 0 11.8258V15.8091C0 17.1122 0.52414 18.2931 1.36955 19.1505V41.9114C1.36955 42.3976 1.75961 42.7907 2.24022 42.7907C12.8754 42.7907 6.8556 42.7907 37.7424 42.7907C38.223 42.7907 38.613 42.3976 38.613 41.9114V19.1522C39.4584 18.294 39.9826 17.1131 39.9826 15.8109C39.9826 11.5603 40 11.8276 40 11.8276C40 11.6438 39.9443 11.475 39.8511 11.3343ZM38.2413 15.81C38.2413 17.4543 36.917 18.7926 35.288 18.7926C33.659 18.7926 32.3338 17.4552 32.3338 15.81V12.706H38.2413V15.81ZM30.5925 15.81C30.5925 17.4543 29.2682 18.7926 27.6392 18.7926C26.0102 18.7926 24.6859 17.4552 24.6859 15.81V12.706H30.5925V15.81ZM22.9446 15.81C22.9446 17.4543 21.6203 18.7926 19.9913 18.7926C18.3623 18.7926 17.038 17.4552 17.038 15.81V12.706H22.9446V15.81ZM15.2967 15.81C15.2967 17.4543 13.9724 18.7926 12.3434 18.7926C10.7144 18.7926 9.3901 17.4552 9.3901 15.81V12.706H15.2967V15.81ZM7.64877 15.81C7.64877 17.4543 6.32363 18.7926 4.69461 18.7926C3.0656 18.7926 1.74133 17.4552 1.74133 15.81V12.706H7.64877V15.81ZM6.05633 1.75862H33.9263L37.7955 10.9474C24.6328 10.9474 12.8675 10.9474 2.18711 10.9474L6.05633 1.75862ZM8.56558 41.0338V29.0858H16.1195V41.0338H8.56558ZM17.8617 41.0338V28.2065C17.8617 27.7202 17.4716 27.3272 16.991 27.3272H7.69492C7.21431 27.3272 6.82426 27.7202 6.82426 28.2065V41.0338H3.11001V20.254C3.60716 20.4351 4.13565 20.5512 4.69374 20.5512C6.274 20.5512 7.66706 19.7537 8.51857 18.542C9.37008 19.7537 10.7631 20.5512 12.3425 20.5512C13.9219 20.5512 15.315 19.7537 16.1665 18.542C17.018 19.7537 18.411 20.5512 19.9904 20.5512C21.5698 20.5512 22.9629 19.7537 23.8144 18.542C24.6659 19.7537 26.0589 20.5512 27.6383 20.5512C29.2177 20.5512 30.6108 19.7537 31.4623 18.542C32.3138 19.7537 33.7068 20.5512 35.2871 20.5512C35.8452 20.5512 36.3737 20.4351 36.8708 20.254V41.0338H17.8617Z" fill="white"/>
<path d="M33.8829 24.6121H22.3597C21.8791 24.6121 21.489 25.0051 21.489 25.4914V31.0512C21.489 31.5375 21.8791 31.9305 22.3597 31.9305H33.8829C34.3635 31.9305 34.7536 31.5375 34.7536 31.0512V25.4914C34.7536 25.0051 34.3635 24.6121 33.8829 24.6121ZM33.0122 30.1719H23.2303V26.3707H33.0122V30.1719Z" fill="white"/>
</svg>
