<svg width="46" height="45" viewBox="0 0 46 45" fill="none" xmlns="http://www.w3.org/2000/svg">
<path d="M36.9526 45.0002H9.04217C8.82186 45.0002 8.61058 44.912 8.4548 44.7552C8.29902 44.5983 8.2115 44.3856 8.2115 44.1637V20.6681C8.2108 20.554 8.23329 20.441 8.27757 20.336C8.32186 20.231 8.387 20.1362 8.46901 20.0575L22.4242 6.84174C22.5787 6.69344 22.784 6.61072 22.9974 6.61072C23.2108 6.61072 23.4161 6.69344 23.5705 6.84174L37.5258 20.0659C37.6078 20.1446 37.6729 20.2394 37.7172 20.3444C37.7615 20.4494 37.784 20.5624 37.7833 20.6765V44.1637C37.7833 44.2736 37.7618 44.3823 37.72 44.4838C37.6783 44.5853 37.6171 44.6775 37.54 44.7552C37.4628 44.8329 37.3713 44.8945 37.2705 44.9365C37.1697 44.9785 37.0617 45.0002 36.9526 45.0002ZM9.87284 43.3273H36.1219V21.0278L22.9974 8.59826L9.87284 21.0278V43.3273Z" fill="white"/>
<path d="M36.9526 44.9999H9.04215C8.82185 44.9999 8.61056 44.9117 8.45478 44.7549C8.299 44.598 8.21149 44.3853 8.21149 44.1634V39.7554C8.21149 39.5335 8.299 39.3208 8.45478 39.1639C8.61056 39.0071 8.82185 38.9189 9.04215 38.9189H36.9526C37.1729 38.9189 37.3842 39.0071 37.54 39.1639C37.6957 39.3208 37.7833 39.5335 37.7833 39.7554V44.1634C37.7833 44.3853 37.6957 44.598 37.54 44.7549C37.3842 44.9117 37.1729 44.9999 36.9526 44.9999ZM9.87282 43.327H36.1219V40.5918H9.87282V43.327Z" fill="white"/>
<path d="M45.1705 21.5038H36.9552C36.7442 21.5008 36.5423 21.4171 36.3904 21.2696L23 8.59755L9.60963 21.2696C9.45773 21.4171 9.25577 21.5008 9.04478 21.5038H0.829475C0.66085 21.5036 0.496293 21.4517 0.357674 21.355C0.219056 21.2583 0.112943 21.1214 0.0534383 20.9626C-0.00606606 20.8037 -0.0161431 20.6303 0.0245465 20.4656C0.0652361 20.3008 0.154765 20.1524 0.281234 20.0401L22.4518 0.208052C22.6033 0.0739541 22.7982 0 23 0C23.2018 0 23.3967 0.0739541 23.5482 0.208052L45.7188 20.0401C45.8452 20.1524 45.9348 20.3008 45.9755 20.4656C46.0161 20.6303 46.0061 20.8037 45.9466 20.9626C45.8871 21.1214 45.7809 21.2583 45.6423 21.355C45.5037 21.4517 45.3391 21.5036 45.1705 21.5038ZM37.2875 19.831H42.9859L23 1.95621L3.01413 19.831H8.71251L22.4268 6.84103C22.5813 6.69274 22.7866 6.61001 23 6.61001C23.2134 6.61001 23.4187 6.69274 23.5732 6.84103L37.2875 19.831Z" fill="white"/>
<path d="M23.1133 37.622C22.3787 37.5704 21.6936 37.2302 21.2057 36.6748C20.7178 36.1194 20.4662 35.3932 20.505 34.6527V27.1749C20.4967 26.5273 20.6883 25.8931 21.0532 25.3598C21.1159 25.2697 21.1957 25.193 21.2878 25.1339C21.38 25.0749 21.4829 25.0347 21.5905 25.0157C21.6981 24.9967 21.8083 24.9991 21.915 25.023C22.0216 25.0469 22.1225 25.0917 22.212 25.1549C22.3014 25.218 22.3777 25.2983 22.4363 25.3911C22.4949 25.484 22.5348 25.5875 22.5537 25.6959C22.5726 25.8042 22.5702 25.9152 22.5464 26.0226C22.5227 26.13 22.4782 26.2316 22.4155 26.3217C22.2513 26.5692 22.1645 26.8605 22.1663 27.1582V34.6359C22.1663 35.3385 22.6149 35.9324 23.1465 35.9324C23.6781 35.9324 24.1267 35.3385 24.1267 34.6359V27.1749C24.1322 26.8767 24.0451 26.5843 23.8775 26.3384C23.8142 26.248 23.7693 26.1459 23.7454 26.0379C23.7216 25.9299 23.7192 25.8182 23.7386 25.7093C23.7579 25.6004 23.7984 25.4964 23.8579 25.4034C23.9174 25.3104 23.9947 25.2302 24.0852 25.1674C24.2659 25.0413 24.489 24.9924 24.7054 25.0316C24.9218 25.0708 25.114 25.1949 25.2398 25.3765C25.6047 25.9098 25.7963 26.544 25.788 27.1916V34.6694C25.8218 35.418 25.5591 36.1495 25.0576 36.7032C24.556 37.2568 23.8567 37.5873 23.1133 37.622Z" fill="white"/>
<path d="M23.1197 26.6817C22.058 26.6817 21.0202 26.3646 20.1376 25.7705C19.2549 25.1764 18.5672 24.332 18.1612 23.3441C17.7553 22.3563 17.6496 21.2694 17.8573 20.2211C18.065 19.1727 18.5769 18.2099 19.3282 17.4545C20.0795 16.6992 21.0364 16.1852 22.0779 15.9777C23.1194 15.7701 24.1986 15.8783 25.179 16.2886C26.1593 16.6988 26.9968 17.3927 27.5855 18.2824C28.1741 19.1721 28.4874 20.2176 28.4858 21.2867C28.4858 21.9958 28.3469 22.6981 28.0772 23.3532C27.8074 24.0083 27.412 24.6034 26.9136 25.1045C26.4152 25.6056 25.8236 26.0028 25.1726 26.2734C24.5216 26.5441 23.824 26.6828 23.1197 26.6817ZM23.1197 17.5561C22.3869 17.5561 21.6707 17.7749 21.0614 18.1848C20.4522 18.5948 19.9773 19.1774 19.6969 19.859C19.4165 20.5407 19.3431 21.2908 19.4861 22.0144C19.629 22.7381 19.9819 23.4028 20.5 23.9245C21.0181 24.4463 21.6783 24.8016 22.3969 24.9455C23.1156 25.0894 23.8605 25.0156 24.5374 24.7332C25.2144 24.4509 25.793 23.9727 26.2001 23.3592C26.6072 22.7457 26.8245 22.0245 26.8245 21.2867C26.8255 20.7961 26.7305 20.31 26.5448 19.8565C26.3591 19.4029 26.0864 18.9907 25.7423 18.6434C25.3982 18.2961 24.9894 18.0205 24.5394 17.8325C24.0893 17.6445 23.6069 17.5478 23.1197 17.5478V17.5561Z" fill="white"/>
<path d="M22.2871 30.3197H21.3817C21.1614 30.3197 20.9501 30.2316 20.7943 30.0747C20.6385 29.9179 20.551 29.7051 20.551 29.4833C20.551 29.2615 20.6385 29.0487 20.7943 28.8918C20.9501 28.735 21.1614 28.6469 21.3817 28.6469H22.2871C22.5074 28.6469 22.7187 28.735 22.8745 28.8918C23.0303 29.0487 23.1178 29.2615 23.1178 29.4833C23.1178 29.7051 23.0303 29.9179 22.8745 30.0747C22.7187 30.2316 22.5074 30.3197 22.2871 30.3197Z" fill="white"/>
<path d="M22.2871 33.0635H21.3817C21.1614 33.0635 20.9501 32.9754 20.7943 32.8185C20.6385 32.6617 20.551 32.4489 20.551 32.2271C20.551 32.0052 20.6385 31.7925 20.7943 31.6356C20.9501 31.4787 21.1614 31.3906 21.3817 31.3906H22.2871C22.5074 31.3906 22.7187 31.4787 22.8745 31.6356C23.0303 31.7925 23.1178 32.0052 23.1178 32.2271C23.1178 32.4489 23.0303 32.6617 22.8745 32.8185C22.7187 32.9754 22.5074 33.0635 22.2871 33.0635Z" fill="white"/>
<path d="M22.8915 21.2779C22.5925 21.2779 22.3002 21.1886 22.0516 21.0214C21.803 20.8541 21.6092 20.6163 21.4948 20.3382C21.3804 20.06 21.3504 19.7539 21.4088 19.4586C21.4671 19.1633 21.6111 18.8921 21.8225 18.6792C22.034 18.4663 22.3033 18.3213 22.5966 18.2625C22.8899 18.2038 23.1938 18.2339 23.4701 18.3492C23.7463 18.4644 23.9825 18.6595 24.1486 18.9098C24.3147 19.1602 24.4034 19.4545 24.4034 19.7556C24.4012 20.1587 24.2412 20.5446 23.9582 20.8296C23.6751 21.1146 23.2918 21.2757 22.8915 21.2779ZM22.8915 19.605C22.8519 19.605 22.8139 19.6209 22.7858 19.6491C22.7578 19.6774 22.742 19.7157 22.742 19.7556C22.742 19.9229 23.0411 19.9229 23.0411 19.7556C23.0411 19.7157 23.0253 19.6774 22.9973 19.6491C22.9692 19.6209 22.9312 19.605 22.8915 19.605Z" fill="white"/>
</svg>
