<svg width="54" height="44" viewBox="0 0 54 44" fill="none" xmlns="http://www.w3.org/2000/svg">
<path d="M4.26237 19.4651V19.318L4.1337 19.2465L0.849742 17.4237C0.695356 17.3328 0.544272 17.1555 0.430526 16.909C0.317534 16.6641 0.25 16.3687 0.25 16.0678C0.25 15.767 0.317536 15.4715 0.430529 15.2266C0.544288 14.98 0.695396 14.8027 0.8498 14.7118L26.6965 0.337306C26.885 0.258165 27.0649 0.193886 27.2838 0.326163L27.2837 0.326302L27.2916 0.330679L53.1482 14.7106C53.1488 14.711 53.1495 14.7114 53.1502 14.7118C53.3046 14.8027 53.4557 14.98 53.5695 15.2266C53.6825 15.4715 53.75 15.767 53.75 16.0678C53.75 16.3687 53.6825 16.6641 53.5695 16.909C53.4557 17.1555 53.3046 17.3328 53.1502 17.4237C53.1495 17.4241 53.1488 17.4246 53.1482 17.425L43.5984 22.7366L43.4627 22.812L43.4702 22.9671L43.991 33.7276C44.0726 35.4085 43.3554 36.7114 42.4328 37.8114C41.5132 38.908 40.2732 39.8707 38.7469 40.7425L38.8709 40.9596L38.7469 40.7425C35.6969 42.4847 31.5565 43.75 27 43.75C22.4435 43.75 18.3031 42.4847 15.2531 40.7425L15.1291 40.9596L15.2531 40.7425C13.7268 39.8707 12.4868 38.908 11.5672 37.8114C10.6446 36.7114 9.92741 35.4085 10.009 33.7276L10.009 33.7276L10.5298 22.9671L10.5373 22.8125L10.4021 22.7369L6.43321 20.5161L6.06114 20.3079V20.7342V28.5864V28.67L6.11145 28.7368C6.42502 29.1531 6.63583 29.763 6.63583 30.4636C6.63583 31.121 6.45437 31.7051 6.17405 32.1178C5.89281 32.5318 5.53042 32.7517 5.16176 32.7517C4.79309 32.7517 4.4307 32.5318 4.14946 32.1178C3.86914 31.7051 3.68768 31.121 3.68768 30.4636C3.68768 29.763 3.8985 29.1531 4.21206 28.7368L4.26237 28.67V28.5864V19.4651ZM27.1215 3.27783L27 3.21025L26.8785 3.27783L4.25005 15.8625L3.85678 16.0812L4.25024 16.2996L26.8787 28.8579L27 28.9252L27.1213 28.8579L49.7498 16.2996L50.1432 16.0812L49.75 15.8625L27.1215 3.27783ZM12.6466 23.9792L12.2945 23.7833L12.2753 24.1857L11.8083 33.9415L11.8071 33.9667L11.811 33.9917L12.058 33.9534C11.811 33.9917 11.811 33.9918 11.811 33.9919L11.8111 33.9922L11.8111 33.9927L11.8113 33.9939L11.8118 33.9969L11.8134 34.0055C11.8146 34.0124 11.8164 34.0215 11.8188 34.0327C11.8236 34.0551 11.831 34.0859 11.8418 34.1246C11.8636 34.2018 11.8993 34.31 11.9566 34.443C12.0715 34.7093 12.2727 35.0739 12.6208 35.4889C13.3082 36.3085 14.4257 37.2278 15.8311 38.0305L15.9472 37.8274L15.8311 38.0305C18.6412 39.6356 22.6422 40.8659 27 40.8659C31.3578 40.8659 35.3587 39.6356 38.1688 38.0305C39.5743 37.2278 40.6918 36.3085 41.3792 35.4889C41.7273 35.0739 41.9285 34.7093 42.0434 34.443C42.1007 34.31 42.1364 34.2018 42.1581 34.1246C42.1613 34.1134 42.1642 34.1028 42.1667 34.0929C42.1731 34.0687 42.1778 34.0486 42.1812 34.0327C42.1836 34.0215 42.1854 34.0124 42.1866 34.0055L42.1882 33.9969L42.1887 33.9939L42.1889 33.9927L42.1889 33.9922L42.189 33.9919C42.189 33.9919 42.189 33.9918 42.1456 33.985L42.189 33.9917L42.1929 33.9667L42.1917 33.9415L41.7247 24.1857L41.7055 23.7833L41.3534 23.9792L27.2915 31.805L27.2898 31.8059C27.1034 31.9116 26.8966 31.9116 26.7102 31.8059L26.7085 31.805L12.6466 23.9792Z" fill="white" stroke="#6B8DF4" stroke-width="0.5"/>
</svg>
