<svg width="46" height="46" viewBox="0 0 46 46" fill="none" xmlns="http://www.w3.org/2000/svg">
<path d="M44.3681 34.7803V30.3945C44.3681 26.9776 42.3282 23.8668 39.1663 22.5408L35.1885 12.4433C34.9845 11.9333 34.4235 11.7293 33.9645 11.9333C33.5055 12.1373 33.2506 12.6982 33.4545 13.1572L36.9224 21.8778C36.5654 21.8268 36.2084 21.8268 35.8514 21.8268H10.1486C9.84257 21.8268 9.48559 21.8268 9.1796 21.8778L12.6474 13.1572C12.8514 12.6472 12.5965 12.1373 12.1375 11.9333C11.6275 11.7293 11.1175 11.9843 10.9135 12.4433L6.9357 22.4388C3.67184 23.7648 1.58093 26.9266 1.52993 30.3945V34.7803C0.611973 35.0863 0 35.9532 0 36.8712V38.0441C0 39.2681 1.01996 40.2881 2.2439 40.2881H3.56984V43.4499C3.56984 44.8269 4.6918 45.8978 6.06874 45.9488H12.1375C13.5144 45.9488 14.6364 44.8269 14.6364 43.4499V40.2881H31.3636V43.4499C31.3636 44.8269 32.4856 45.8978 33.8625 45.9488H39.9313C41.3082 45.9488 42.4302 44.8269 42.4302 43.4499V40.2881H43.7561C44.98 40.2881 46 39.2681 46 38.0441V36.8712C45.898 35.9022 45.286 35.0863 44.3681 34.7803ZM3.46785 30.3945C3.46785 27.5896 5.25277 25.0907 7.85366 24.1217C7.90466 24.1217 7.90466 24.1217 7.95565 24.0707C8.66962 23.8158 9.38359 23.7138 10.1486 23.7138H35.8004C36.5654 23.7138 37.3304 23.8668 38.0443 24.1217C38.0953 24.1217 38.1463 24.1727 38.1973 24.1727C40.7982 25.1417 42.4812 27.6406 42.4812 30.3945V34.6783H31.1596V31.8734C31.1596 30.4965 30.0377 29.4255 28.6608 29.4255H17.2372C15.8603 29.4255 14.7384 30.5475 14.7384 31.8734V34.6783H3.46785V30.3945ZM16.6253 34.6273V31.8224C16.6253 31.5164 16.8803 31.2614 17.1863 31.2614H28.6608C28.9667 31.2614 29.2217 31.5164 29.2217 31.8224V34.6273H16.6253ZM12.6984 43.4499C12.6984 43.7559 12.4435 44.0109 12.1375 44.0109H6.06874C5.76275 44.0109 5.50776 43.7559 5.50776 43.4499V40.2881H12.6984V43.4499ZM40.3902 43.4499C40.3902 43.7559 40.1353 44.0109 39.8293 44.0109H33.8115C33.5055 44.0109 33.2506 43.7559 33.2506 43.4499V40.2881H40.4412L40.3902 43.4499ZM44.0111 38.0441C44.0111 38.2481 43.8581 38.3501 43.7051 38.3501H2.2439C2.03991 38.3501 1.93792 38.1971 1.93792 38.0441V36.8712C1.93792 36.6672 2.09091 36.5652 2.2439 36.5652H43.6541C43.8581 36.5652 43.9601 36.7182 43.9601 36.8712V38.0441H44.0111Z" fill="white"/>
<path d="M9.02843 25.9584C7.19251 25.9584 5.76457 27.4373 5.76457 29.2732C5.76457 31.0582 7.24351 32.5371 9.07943 32.5371C10.8643 32.5371 12.3433 31.0582 12.3433 29.2732C12.3433 27.4373 10.8644 25.9584 9.02843 25.9584ZM9.02843 30.5992C8.26346 30.5992 7.65149 29.9362 7.65149 29.2222C7.65149 28.4573 8.31446 27.8453 9.02843 27.8963C9.7934 27.8963 10.4054 28.5083 10.4054 29.2732C10.4564 29.9872 9.7934 30.5992 9.02843 30.5992Z" fill="white"/>
<path d="M36.9707 32.4855C38.8066 32.4855 40.2346 31.0065 40.2346 29.1706C40.2346 27.3857 38.7556 25.9067 36.9197 25.9067C35.1348 25.9067 33.6559 27.3857 33.6559 29.1706C33.6559 31.0575 35.1348 32.5365 36.9707 32.4855ZM36.9707 27.8447C37.7357 27.8447 38.3476 28.5076 38.3476 29.2216C38.3476 29.9866 37.6847 30.5985 36.9707 30.5475C36.2057 30.5475 35.5938 29.9356 35.5938 29.1706C35.5938 28.4566 36.2057 27.8447 36.9707 27.8447Z" fill="white"/>
<path d="M14.6869 11.4745L15.3499 11.6785C15.5029 12.1375 15.6559 12.5455 15.8599 12.9534L15.5539 13.5654C15.2479 14.1774 15.3499 14.9424 15.8089 15.4013L16.6758 16.3193C17.1348 16.8293 17.8998 16.9313 18.5117 16.6253L19.0727 16.3703C19.5827 16.6763 20.1437 16.8803 20.7046 17.0843L20.9086 17.6452C21.1126 18.3082 21.7246 18.7162 22.4386 18.7162H23.7135C24.4275 18.7162 25.0395 18.2572 25.2435 17.6452L25.3964 17.1863C25.9574 17.0333 26.4674 16.8293 26.9774 16.5743L27.3854 16.7783C27.9973 17.0843 28.7623 16.9823 29.2213 16.5233L30.1392 15.6563C30.6492 15.1973 30.8022 14.4324 30.4962 13.8204L30.3432 13.5144C30.7002 12.9024 30.9552 12.2905 31.1592 11.6275L31.4652 11.5255C32.1282 11.3215 32.5871 10.7095 32.5871 9.99557V8.77162C32.5871 8.05765 32.1282 7.44568 31.4652 7.24169L31.1082 7.13969C30.9552 6.52772 30.7002 5.96674 30.3942 5.45677L30.5472 5.15078C30.8532 4.5388 30.7512 3.77384 30.2922 3.31486L29.4253 2.3969C28.9663 1.88692 28.2013 1.78492 27.5893 2.09091L27.1814 2.2949C26.6204 1.98891 26.0084 1.73393 25.3454 1.58093L25.1925 1.07095C24.9885 0.407982 24.3765 0 23.6625 0H22.4386C21.7246 0 21.1126 0.45898 20.9086 1.07095L20.7046 1.63193C20.2457 1.78492 19.7357 1.98891 19.3277 2.19291L18.7667 1.88692C18.1548 1.58093 17.3898 1.68293 16.9308 2.14191L16.0129 3.00887C15.5029 3.46785 15.3499 4.23282 15.6559 4.84479L15.9619 5.45677C15.7069 5.91575 15.5029 6.42572 15.3499 6.9357L14.6869 7.19069C14.0239 7.39468 13.565 8.00665 13.565 8.72062V9.94457C13.565 10.6585 14.0239 11.2705 14.6869 11.4745ZM15.4519 8.92461L16.9308 8.46564L17.0328 7.95566C17.1858 7.29269 17.4408 6.62971 17.8488 6.06874L18.1548 5.60976L17.4918 4.28381L18.1038 3.72284L19.4297 4.38581L19.8887 4.07982C20.4497 3.72284 21.0616 3.46785 21.7246 3.31486L22.2346 3.21286L22.6936 1.88692H23.4585L23.8665 3.16186L24.4275 3.26386C25.1925 3.41685 25.9574 3.72284 26.6204 4.13082L27.0794 4.43681L28.2013 3.87583L28.7623 4.43681L28.2013 5.50776L28.5073 5.96674C28.9153 6.57872 29.2213 7.29269 29.3743 8.05765L29.4763 8.56763L30.5982 8.92461V9.74058L29.4763 10.0976L29.3743 10.6075C29.2213 11.4235 28.8643 12.1375 28.4053 12.8514L28.0993 13.3104L28.6093 14.4324L27.9973 14.9934L26.8754 14.4324L26.4164 14.6874C25.8044 15.0444 25.1415 15.2993 24.4275 15.4523L23.8665 15.5543L23.4585 16.8293H22.6426L22.1836 15.5033L21.6736 15.4013C20.9596 15.2483 20.2967 14.9424 19.6847 14.5344L19.2257 14.2284L17.8998 14.8404L17.3388 14.2794L18.0528 12.9534L17.7978 12.4945C17.4918 11.9335 17.2368 11.3725 17.0838 10.7605L16.9818 10.2506L15.5029 9.74058L15.4519 8.92461Z" fill="white"/>
<path d="M23.0531 13.7694C25.603 13.7694 27.6429 11.7805 27.6429 9.38361C27.6429 6.98672 25.603 4.9978 23.0531 4.9978C21.7272 4.9978 20.5032 5.55878 19.5853 6.47674C18.8713 7.24171 18.4633 8.31266 18.4633 9.38361C18.4633 11.7805 20.5032 13.7694 23.0531 13.7694ZM21.0132 7.75169C21.5232 7.19071 22.2881 6.88472 23.0531 6.88472C24.532 6.88472 25.756 8.00667 25.756 9.38361C25.756 10.7606 24.532 11.8825 23.0531 11.8825C21.5742 11.8825 20.3502 10.7606 20.3502 9.38361C20.3502 8.77164 20.6052 8.21067 21.0132 7.75169Z" fill="white"/>
</svg>
