<svg width="42" height="47" viewBox="0 0 42 47" fill="none" xmlns="http://www.w3.org/2000/svg">
<path d="M38.9737 11.0722V3.80427C38.9737 1.70637 37.2673 0 35.1694 0H3.80427C1.70637 0 0 1.70637 0 3.80427V30.0642C0 32.5644 2.03316 34.5976 4.53337 34.5976H5.99157C6.48021 34.5976 6.8779 34.2014 6.8779 33.7113C6.8779 33.2211 6.48175 32.8249 5.99157 32.8249H4.53337C3.12758 32.8249 1.96379 31.7675 1.79423 30.408C1.79732 30.4033 8.36847 21.7759 8.36847 21.7759L10.582 23.3944C10.9766 23.6827 11.5315 23.5963 11.8197 23.2017L18.1443 14.5466L19.9971 15.8999C20.3917 16.1882 20.9466 16.1019 21.2349 15.7073L26.7378 8.17579C27.026 7.78118 26.9397 7.22626 26.5451 6.93801C26.1505 6.64977 25.5956 6.73609 25.3073 7.13069L20.3269 13.9469L18.4741 12.592C18.2845 12.4533 18.0472 12.3962 17.8159 12.4317C17.5832 12.4672 17.3751 12.5951 17.2364 12.7847L10.9118 21.4399L8.71221 19.8337C8.32222 19.5485 7.77656 19.6287 7.48522 20.0125L1.77111 27.5147V3.80427C1.77111 2.68364 2.6821 1.77265 3.80273 1.77265H35.1694C36.2901 1.77265 37.2011 2.68364 37.2011 3.80427V10.9427H29.3336C27.638 10.9427 26.2599 12.3223 26.2599 14.0163V20.5813C26.2599 22.2769 27.6395 23.6549 29.3336 23.6549H37.2011V30.7933C37.2011 31.9139 36.2901 32.8249 35.1694 32.8249H32.9806C32.492 32.8249 32.0943 33.2211 32.0943 33.7113C32.0943 34.1999 32.4904 34.5976 32.9806 34.5976H35.1694C37.2673 34.5976 38.9737 32.8912 38.9737 30.7933V23.5239C40.2377 23.1432 41.1626 21.967 41.1626 20.5797V14.0148C41.1626 12.629 40.2392 11.4544 38.9737 11.0722ZM39.3914 20.5813C39.3914 21.2996 38.8072 21.8838 38.0889 21.8838H29.3351C28.6168 21.8838 28.0326 21.2996 28.0326 20.5813V14.0163C28.0326 13.298 28.6168 12.7138 29.3351 12.7138H38.0889C38.8072 12.7138 39.3914 13.298 39.3914 14.0163V20.5813Z" fill="white"/>
<path d="M32.6174 14.2245C30.9218 14.2245 29.5438 15.6041 29.5438 17.2981C29.5438 18.9937 30.9234 20.3717 32.6174 20.3717C34.313 20.3717 35.691 18.9922 35.691 17.2981C35.691 15.6041 34.313 14.2245 32.6174 14.2245ZM32.6174 18.6022C31.8991 18.6022 31.3149 18.018 31.3149 17.2997C31.3149 16.5813 31.8991 15.9971 32.6174 15.9971C33.3357 15.9971 33.9199 16.5813 33.9199 17.2997C33.9199 18.0164 33.3357 18.6022 32.6174 18.6022Z" fill="white"/>
<path d="M27.2141 27.0693C26.8534 26.7394 26.2923 26.7641 25.9624 27.1263C25.6325 27.487 25.6572 28.0481 26.0194 28.378C28.0264 30.2108 29.1778 32.8204 29.1778 35.5364C29.1778 40.8806 24.831 45.2275 19.4868 45.2275C14.1427 45.2275 9.7958 40.8806 9.7958 35.5364C9.7958 30.1923 14.1427 25.8454 19.4868 25.8454C19.8783 25.8454 20.273 25.8685 20.6599 25.9148C21.1454 25.9733 21.5863 25.6265 21.6448 25.141C21.7034 24.6554 21.3566 24.2146 20.871 24.156C20.4148 24.1005 19.9493 24.0728 19.4868 24.0728C13.1654 24.0728 8.02315 29.215 8.02315 35.5364C8.02315 41.8579 13.1654 47.0001 19.4868 47.0001C25.8083 47.0001 30.9505 41.8579 30.9505 35.5364C30.9505 32.3225 29.5879 29.2366 27.2141 27.0693Z" fill="white"/>
<path d="M20.947 29.5432H20.3736V28.6061C20.3736 28.1174 19.9774 27.7197 19.4872 27.7197C18.9971 27.7197 18.6009 28.1159 18.6009 28.6061V29.5432H18.0275C16.5338 29.5432 15.3176 30.7594 15.3176 32.2531V33.7113C15.3176 35.205 16.5338 36.4211 18.0275 36.4211H20.9454C21.4634 36.4211 21.8826 36.842 21.8826 37.3583V38.8165C21.8826 39.3345 21.4618 39.7537 20.9454 39.7537H18.0275C17.5096 39.7537 17.0903 39.3329 17.0903 38.8165V38.0874C17.0903 37.5988 16.6941 37.2011 16.204 37.2011C15.7153 37.2011 15.3176 37.5973 15.3176 38.0874V38.8165C15.3176 40.3102 16.5338 41.5264 18.0275 41.5264H18.6009V42.4636C18.6009 42.9522 18.9971 43.3499 19.4872 43.3499C19.9774 43.3499 20.3736 42.9538 20.3736 42.4636V41.5264H20.947C22.4406 41.5264 23.6568 40.3102 23.6568 38.8165V37.3583C23.6568 35.8647 22.4406 34.6485 20.947 34.6485H18.029C17.5111 34.6485 17.0918 34.2277 17.0918 33.7113V32.2531C17.0918 31.7352 17.5127 31.3159 18.029 31.3159H20.947C21.4649 31.3159 21.8842 31.7367 21.8842 32.2531V32.9822C21.8842 33.4708 22.2803 33.8685 22.7705 33.8685C23.2607 33.8685 23.6568 33.4724 23.6568 32.9822V32.2531C23.6553 30.7594 22.4406 29.5432 20.947 29.5432Z" fill="white"/>
<path d="M20.373 22.041V18.0287C20.373 17.54 19.9768 17.1423 19.4867 17.1423C18.9965 17.1423 18.6003 17.5385 18.6003 18.0287V22.041C18.6003 22.5297 18.9965 22.9274 19.4867 22.9274C19.9768 22.9274 20.373 22.5297 20.373 22.041Z" fill="white"/>
<path d="M15.995 23.1337V21.6755C15.995 21.1869 15.5988 20.7892 15.1086 20.7892C14.62 20.7892 14.2223 21.1853 14.2223 21.6755V23.1337C14.2223 23.6224 14.6185 24.02 15.1086 24.02C15.5988 24.02 15.995 23.6239 15.995 23.1337Z" fill="white"/>
<path d="M24.7496 28.2407V19.4869C24.7496 18.9983 24.3534 18.6006 23.8633 18.6006C23.3731 18.6006 22.9769 18.9967 22.9769 19.4869V28.2407C22.9769 28.7294 23.3731 29.1271 23.8633 29.1271C24.3534 29.1271 24.7496 28.7294 24.7496 28.2407Z" fill="white"/>
</svg>
