<svg width="41" height="41" viewBox="0 0 41 41" fill="none" xmlns="http://www.w3.org/2000/svg">
<path d="M39.7174 12.6532H28.8053V1.84543C28.8053 1.55144 28.6874 1.26949 28.4775 1.06161C28.2676 0.853726 27.9829 0.736938 27.6861 0.736938H13.9424C13.6455 0.736938 13.3609 0.853726 13.151 1.06161C12.9411 1.26949 12.8232 1.55144 12.8232 1.84543V12.6532H1.9558C1.65897 12.6532 1.3743 12.77 1.16441 12.9779C0.954524 13.1858 0.836609 13.4677 0.836609 13.7617V27.3407C0.836609 27.6347 0.954524 27.9167 1.16441 28.1246C1.3743 28.3324 1.65897 28.4492 1.9558 28.4492H12.8232V39.257C12.8232 39.551 12.9411 39.833 13.151 40.0408C13.3609 40.2487 13.6455 40.3655 13.9424 40.3655H27.6861C27.9829 40.3655 28.2676 40.2487 28.4775 40.0408C28.6874 39.833 28.8053 39.551 28.8053 39.257V28.4492H39.7174C40.0142 28.4492 40.2989 28.3324 40.5088 28.1246C40.7187 27.9167 40.8366 27.6347 40.8366 27.3407V13.7617C40.8366 13.4677 40.7187 13.1858 40.5088 12.9779C40.2989 12.77 40.0142 12.6532 39.7174 12.6532ZM38.5982 26.2322H27.6861C27.3892 26.2322 27.1046 26.349 26.8947 26.5569C26.6848 26.7648 26.5669 27.0467 26.5669 27.3407V38.1485H15.0616V27.3407C15.0616 27.0467 14.9437 26.7648 14.7338 26.5569C14.5239 26.349 14.2392 26.2322 13.9424 26.2322H3.075V14.8702H13.9424C14.2392 14.8702 14.5239 14.7534 14.7338 14.5455C14.9437 14.3377 15.0616 14.0557 15.0616 13.7617V2.95392H26.5669V13.7617C26.5669 14.0557 26.6848 14.3377 26.8947 14.5455C27.1046 14.7534 27.3892 14.8702 27.6861 14.8702H38.5982V26.2322Z" fill="white"/>
</svg>
